<?xml version="1.0" encoding="iso-8859-1"?>
<!-- Generator: Adobe Illustrator 19.0.0, SVG Export Plug-In . SVG Version: 6.00 Build 0)  -->
<svg version="1.1" id="Capa_1" xmlns="http://www.w3.org/2000/svg" xmlns:xlink="http://www.w3.org/1999/xlink" x="0px" y="0px"
	 viewBox="0 0 512 512" style="enable-background:new 0 0 512 512;" xml:space="preserve">
<g>
	<g>
		<path d="M99.986,382.017c-16.567,0-29.996,13.435-29.996,29.999c0,16.565,13.429,29.993,29.996,29.993
			c16.567,0,29.996-13.428,29.996-29.993v-0.015C129.982,395.438,116.553,382.017,99.986,382.017z"/>
	</g>
</g>
<g>
	<g>
		<path d="M412.012,311.999c-16.362,0-32.412,4.051-46.727,11.633l-38.578-52.435l105.754-145.41l0.801-1.103l0.645-1.2
			c22.118-41.195,6.676-92.846-34.423-115.139l-15.336-8.319l-128.28,174.814L127.792,0.136l-15.344,8.323
			c-41.099,22.295-56.54,73.946-34.423,115.139l0.641,1.193l106.391,146.548l-38.364,52.281
			c-14.311-7.575-30.351-11.622-46.706-11.622C44.854,311.998,0,356.852,0,411.985s44.854,99.987,99.987,99.987
			c34.88,0,66.726-18.602,89.711-52.39l66.211-91.038l66.4,91.05c22.984,33.782,54.828,52.379,89.703,52.379
			c55.133,0,99.987-44.853,99.987-99.987S467.146,311.999,412.012,311.999z M112.693,103.586
			c-8.205-16.324-5.525-35.502,5.469-48.938l112.897,154l-21.16,28.835L112.693,103.586z M157.162,436.321l-0.387,0.551
			c-8.877,13.111-28.058,35.106-56.789,35.106c-33.08,0-59.992-26.913-59.992-59.992s26.912-59.992,59.992-59.992
			c14.098,0,27.813,5.024,38.621,14.147l16.357,13.809L393.762,54.526c10.997,13.434,13.679,32.613,5.478,48.939L157.162,436.321z
			 M412.012,471.979c-28.73,0-47.912-21.995-56.789-35.106l-0.196-0.289L280.624,334.56l21.399-29.423l55.032,74.798l16.337-13.792
			c10.808-9.124,24.523-14.148,38.62-14.148c33.08,0,59.992,26.913,59.992,59.992C472.004,445.067,445.092,471.979,412.012,471.979z
			"/>
	</g>
</g>
<g>
	<g>
		<path d="M412.013,382.017c-16.567,0-29.996,13.42-29.996,29.985v0.015c0,16.565,13.429,29.993,29.996,29.993
			c16.567,0,29.996-13.428,29.996-29.993C442.009,395.453,428.58,382.017,412.013,382.017z"/>
	</g>
</g>
<g>
</g>
<g>
</g>
<g>
</g>
<g>
</g>
<g>
</g>
<g>
</g>
<g>
</g>
<g>
</g>
<g>
</g>
<g>
</g>
<g>
</g>
<g>
</g>
<g>
</g>
<g>
</g>
<g>
</g>
</svg>
