<?xml version="1.0" encoding="iso-8859-1"?>
<!-- Generator: Adobe Illustrator 19.0.0, SVG Export Plug-In . SVG Version: 6.00 Build 0)  -->
<svg version="1.1" id="Capa_1" xmlns="http://www.w3.org/2000/svg" xmlns:xlink="http://www.w3.org/1999/xlink" x="0px" y="0px"
	 viewBox="0 0 512.001 512.001" style="enable-background:new 0 0 512.001 512.001;" xml:space="preserve">
<g>
	<g>
		<circle cx="255.998" cy="369.997" r="20"/>
	</g>
</g>
<g>
	<g>
		<path d="M508.667,375.108l-26.823-214.585l-0.071,0.009c-2.061-30.48-18.561-57.061-42.701-72.942l-4.195-33.542
			c-3.268-32.759-32.5-56.856-65.326-53.779c-15.974,1.504-30.083,8.999-39.729,21.106C320.781,32.726,316,47.379,316,63.752v40.208
			c-14.921,16.785-24,38.873-24,63.044v42.711c-11.545-3.764-23.677-5.711-36-5.711c-12.357,0-24.472,1.954-36,5.714v-42.714
			c0-25.234-9.893-48.2-26-65.228V63.751c0-16.373-4.78-31.027-13.824-42.378c-9.646-12.107-23.756-19.603-39.735-21.106
			c-32.82-3.097-62.052,21.02-65.319,53.779l-4.202,33.596l1.618,0.202c-23.929,15.912-40.262,42.371-42.312,72.687l-0.071-0.009
			L3.333,375.108c-2.172,8.61-3.331,17.619-3.331,26.894c0,60.654,49.346,109.999,109.999,109.999
			c59.448,0,108.027-47.406,109.934-106.399h0.065v-69.594c9.191-10.172,22.3-16.006,36-16.006c13.807,0,26.794,5.812,36,16.012
			v69.587h0.065C293.972,464.594,342.551,512,401.999,512c60.654,0,109.999-49.346,109.999-109.999
			C511.998,392.726,510.839,383.718,508.667,375.108z M114.846,58.738l0.067-0.608c1.033-10.977,10.813-19.073,21.786-18.038
			c15.616,1.47,17.302,17.036,17.302,23.66v12.784c-9.146-2.938-18.89-4.532-29-4.532c-4.032,0-8.006,0.254-11.907,0.745
			L114.846,58.738z M69.657,167.003h0.344c0-30.327,24.673-55,55-55c30.327,0,55,24.673,55,55V317.21
			c-19.032-15.739-43.43-25.208-69.998-25.208c-21.292,0-41.185,6.087-58.045,16.603L69.657,167.003z M110.002,472
			c-38.598,0-69.999-31.402-69.999-69.999c0-38.598,31.402-69.999,69.999-69.999c38.598,0,69.999,31.402,69.999,69.999
			C180.001,440.598,148.599,472,110.002,472z M292,287.627c-11.175-4.974-23.4-7.625-36-7.625c-12.525,0-24.78,2.67-36,7.668
			v-34.612c11.012-5.939,23.311-9.056,36-9.056c12.65,0,24.985,3.116,36,9.05V287.627z M373.297,40.092
			c10.987-1.027,20.758,7.062,21.791,18.038l1.795,14.387c-3.249-0.337-6.546-0.513-9.883-0.513c-10.85,0-21.28,1.833-31,5.199
			V63.751h0C356,57.127,357.686,41.562,373.297,40.092z M331.999,167.003L331.999,167.003c0.001-30.327,24.674-55,55.001-55
			c30.327,0,55,24.673,55,55h0.344l17.7,141.602c-16.859-10.516-36.753-16.603-58.045-16.603c-26.569,0-50.968,9.469-69.999,25.209
			V167.003z M401.999,472C363.402,472,332,440.598,332,402.001c0-38.598,31.402-69.999,69.999-69.999
			c38.598,0,69.999,31.402,69.999,69.999C471.999,440.598,440.597,472,401.999,472z"/>
	</g>
</g>
<g>
</g>
<g>
</g>
<g>
</g>
<g>
</g>
<g>
</g>
<g>
</g>
<g>
</g>
<g>
</g>
<g>
</g>
<g>
</g>
<g>
</g>
<g>
</g>
<g>
</g>
<g>
</g>
<g>
</g>
</svg>
