<?xml version="1.0" encoding="iso-8859-1"?>
<!-- Generator: Adobe Illustrator 19.0.0, SVG Export Plug-In . SVG Version: 6.00 Build 0)  -->
<svg version="1.1" id="Capa_1" xmlns="http://www.w3.org/2000/svg" xmlns:xlink="http://www.w3.org/1999/xlink" x="0px" y="0px"
	 viewBox="0 0 512 512" style="enable-background:new 0 0 512 512;" xml:space="preserve">
<g>
	<g>
		<path d="M452,68H60C26.916,68,0,94.916,0,128v256c0,33.084,26.916,60,60,60h392c33.084,0,60-26.916,60-60V128
			C512,94.916,485.084,68,452,68z M40,128c0-11.028,8.972-20,20-20h23.707C81.308,114.206,80,120.919,80,128
			c0,11.028-8.972,20-20,20c-7.161,0-13.856,1.035-20,3.027V128z M60,404c-11.028,0-20-8.972-20-20v-23.027
			C46.144,362.965,52.839,364,60,364c11.028,0,20,8.972,20,20c0,7.081,1.308,13.794,3.707,20H60z M472,384c0,11.028-8.972,20-20,20
			h-23.707c2.399-6.206,3.707-12.919,3.707-20c0-11.028,8.972-20,20-20c7.161,0,13.856-1.035,20-3.027V384z M472,292
			c0,32-13.011,32-20,32c-33.084,0-60,26.916-60,60c0,11.589-12.617,20-30,20H150c-17.383,0-30-8.411-30-20
			c0-33.084-26.916-60-60-60c-6.989,0-20,0-20-32v-72c0-32,13.011-32,20-32c33.084,0,60-26.916,60-60c0-11.589,12.617-20,30-20h212
			c17.383,0,30,8.411,30,20c0,33.084,26.916,60,60,60c6.989,0,20,0,20,32V292z M472,151.027c-6.144-1.992-12.839-3.027-20-3.027
			c-11.028,0-20-8.972-20-20c0-7.081-1.308-13.794-3.707-20H452c11.028,0,20,8.972,20,20V151.027z"/>
	</g>
</g>
<g>
	<g>
		<path d="M256,145.878c-55.691,0-101,49.346-101,110s45.309,110,101,110c55.691,0,101-49.346,101-110S311.691,145.878,256,145.878z
			 M256,325.878c-33.636,0-61-31.402-61-70c0-38.598,27.364-70,61-70s61,31.402,61,70C317,294.476,289.636,325.878,256,325.878z"/>
	</g>
</g>
<g>
	<g>
		<circle cx="415" cy="255.88" r="20"/>
	</g>
</g>
<g>
	<g>
		<circle cx="97" cy="255.88" r="20"/>
	</g>
</g>
<g>
</g>
<g>
</g>
<g>
</g>
<g>
</g>
<g>
</g>
<g>
</g>
<g>
</g>
<g>
</g>
<g>
</g>
<g>
</g>
<g>
</g>
<g>
</g>
<g>
</g>
<g>
</g>
<g>
</g>
</svg>
