<?xml version="1.0" encoding="iso-8859-1"?>
<!-- Generator: Adobe Illustrator 19.0.0, SVG Export Plug-In . SVG Version: 6.00 Build 0)  -->
<svg version="1.1" id="Capa_1" xmlns="http://www.w3.org/2000/svg" xmlns:xlink="http://www.w3.org/1999/xlink" x="0px" y="0px"
	 viewBox="0 0 512.001 512.001" style="enable-background:new 0 0 512.001 512.001;" xml:space="preserve">
<g>
	<g>
		<path d="M251,325.44V154h-40v171.44c-23.278,8.256-40,30.487-40,56.56c0,33.084,26.916,60,60,60s60-26.916,60-60
			C291,355.927,274.279,333.697,251,325.44z M231,402c-11.028,0-20-8.972-20-20s8.972-20,20-20s20,8.972,20,20S242.029,402,231,402z
			"/>
	</g>
</g>
<g>
	<g>
		<rect x="351" y="178" width="60" height="40"/>
	</g>
</g>
<g>
	<g>
		<rect x="351" y="107" width="60" height="40"/>
	</g>
</g>
<g>
	<g>
		<rect x="351" y="37" width="60" height="40"/>
	</g>
</g>
<g>
	<g>
		<rect x="351" y="248" width="60" height="40"/>
	</g>
</g>
<g>
	<g>
		<path d="M321,288.188V90c0-49.626-40.374-90-90-90c-49.626,0-90,40.374-90,90v198.188c-25.534,24.473-40,58.147-40,93.813
			c0,71.683,58.317,130,130,130s130-58.317,130-130C361,346.335,346.534,312.66,321,288.188z M231,472c-49.626,0-90-40.374-90-90
			c0-26.945,11.932-52.254,32.736-69.436l7.264-6V90c0-27.57,22.43-50,50-50s50,22.43,50,50v216.564l7.264,6
			C309.068,329.746,321,355.055,321,382C321,431.626,280.627,472,231,472z"/>
	</g>
</g>
<g>
</g>
<g>
</g>
<g>
</g>
<g>
</g>
<g>
</g>
<g>
</g>
<g>
</g>
<g>
</g>
<g>
</g>
<g>
</g>
<g>
</g>
<g>
</g>
<g>
</g>
<g>
</g>
<g>
</g>
</svg>
