<?xml version="1.0" encoding="iso-8859-1"?>
<!-- Generator: Adobe Illustrator 19.0.0, SVG Export Plug-In . SVG Version: 6.00 Build 0)  -->
<svg version="1.1" id="Capa_1" xmlns="http://www.w3.org/2000/svg" xmlns:xlink="http://www.w3.org/1999/xlink" x="0px" y="0px"
	 viewBox="0 0 512 512" style="enable-background:new 0 0 512 512;" xml:space="preserve">
<g>
	<g>
		<path d="M437.018,94.955C388.666,46.62,324.379,20,256,20S123.334,46.62,74.982,94.955C26.629,143.293,0,207.562,0,275.922
			c0,51.361,15.168,100.91,43.863,143.291l33.121-22.426C52.789,361.052,40,319.258,40,275.922C40,156.862,136.897,60,256,60
			s216,96.862,216,215.922c0,43.336-12.789,85.13-36.984,120.865l33.121,22.426C496.832,376.832,512,327.283,512,275.922
			C512,207.562,485.371,143.293,437.018,94.955z"/>
	</g>
</g>
<g>
	<g>
		<circle cx="256" cy="120" r="20"/>
	</g>
</g>
<g>
	<g>
		<circle cx="100" cy="276" r="20"/>
	</g>
</g>
<g>
	<g>
		<circle cx="146" cy="166" r="20"/>
	</g>
</g>
<g>
	<g>
		<circle cx="412" cy="276" r="20"/>
	</g>
</g>
<g>
	<g>
		<path d="M390.643,169.643l-28.285-28.285L259.519,244.197C258.362,244.07,257.189,244,256,244c-17.673,0-32,14.327-32,32
			c0,17.673,14.327,32,32,32c17.673,0,32-14.327,32-32c0-1.189-0.07-2.362-0.196-3.518L390.643,169.643z"/>
	</g>
</g>
<g>
	<g>
		<path d="M146,372v120h220V372H146z M326,452H186v-40h140V452z"/>
	</g>
</g>
<g>
</g>
<g>
</g>
<g>
</g>
<g>
</g>
<g>
</g>
<g>
</g>
<g>
</g>
<g>
</g>
<g>
</g>
<g>
</g>
<g>
</g>
<g>
</g>
<g>
</g>
<g>
</g>
<g>
</g>
</svg>
