<?xml version="1.0" encoding="iso-8859-1"?>
<!-- Generator: Adobe Illustrator 19.0.0, SVG Export Plug-In . SVG Version: 6.00 Build 0)  -->
<svg version="1.1" id="Capa_1" xmlns="http://www.w3.org/2000/svg" xmlns:xlink="http://www.w3.org/1999/xlink" x="0px" y="0px"
	 viewBox="0 0 512 512" style="enable-background:new 0 0 512 512;" xml:space="preserve">
<g>
	<g>
		<path d="M482.104,17.321c-1.75,0.996-174.858,98.783-294.107,100.481c-0.657-0.065-1.323-0.101-1.997-0.101H60
			c-33.084,0-60,26.916-60,60v69c0,26.073,16.722,48.303,40,56.56v108.44c0,55.141,44.86,100,100,100h20v-127h40v-48h-40v-30h26
			c0.943,0,1.863-0.088,2.771-0.214c119.434,1.946,292.173,91.998,293.92,92.915L512,414.815V0.299L482.104,17.321z M120,468.274
			c-23.281-8.255-40-30.498-40-56.573v-105h40V468.274z M166,266.701H60c-11.028,0-20-8.972-20-20v-69c0-11.028,8.972-20,20-20h106
			V266.701z M472,349.495c-53.451-25.371-169.574-75.459-266-82.263V156.984c96.352-7.335,212.222-61.303,266-88.898V349.495z"/>
	</g>
</g>
<g>
</g>
<g>
</g>
<g>
</g>
<g>
</g>
<g>
</g>
<g>
</g>
<g>
</g>
<g>
</g>
<g>
</g>
<g>
</g>
<g>
</g>
<g>
</g>
<g>
</g>
<g>
</g>
<g>
</g>
</svg>
