<?xml version="1.0" encoding="iso-8859-1"?>
<!-- Generator: Adobe Illustrator 19.0.0, SVG Export Plug-In . SVG Version: 6.00 Build 0)  -->
<svg version="1.1" id="Capa_1" xmlns="http://www.w3.org/2000/svg" xmlns:xlink="http://www.w3.org/1999/xlink" x="0px" y="0px"
	 viewBox="0 0 512 512" style="enable-background:new 0 0 512 512;" xml:space="preserve">
<g>
	<g>
		<path d="M430.935,74.97c-44.647,0-80.97,36.322-80.97,80.97h39.985c0-22.599,18.386-40.985,40.985-40.985
			s40.985,18.386,40.985,40.985c0,22.653-18.386,41.082-40.985,41.082H0.095v39.985h430.839c44.646,0,80.97-36.366,80.97-81.067
			C511.905,111.292,475.582,74.97,430.935,74.97z"/>
	</g>
</g>
<g>
	<g>
		<path d="M430.935,275.895H0.095v39.985h430.839c22.599,0,40.985,18.429,40.985,41.082c0,22.599-18.386,40.985-40.985,40.985
			s-40.985-18.386-40.985-40.985h-39.985c0,44.646,36.322,80.97,80.97,80.97c44.646,0,80.97-36.323,80.97-80.97
			C511.905,312.262,475.582,275.895,430.935,275.895z"/>
	</g>
</g>
<g>
	<g>
		<path d="M251.002,349.963H0.095v39.985h250.906c22.599,0,40.985,18.429,40.985,41.082c0,22.599-18.386,40.985-40.985,40.985
			s-40.985-18.386-40.985-40.985h-39.985c0,44.646,36.322,80.97,80.97,80.97c44.646,0,80.97-36.323,80.97-80.97
			C331.972,386.33,295.649,349.963,251.002,349.963z"/>
	</g>
</g>
<g>
	<g>
		<path d="M201.021,0c-44.647,0-80.97,36.323-80.97,80.97h39.985c0-22.599,18.386-40.985,40.985-40.985s40.985,18.386,40.985,40.985
			c0,22.652-18.386,41.08-40.985,41.08H0.095v39.985h200.925c44.646,0,80.97-36.365,80.97-81.065C281.99,36.323,245.668,0,201.021,0
			z"/>
	</g>
</g>
<g>
</g>
<g>
</g>
<g>
</g>
<g>
</g>
<g>
</g>
<g>
</g>
<g>
</g>
<g>
</g>
<g>
</g>
<g>
</g>
<g>
</g>
<g>
</g>
<g>
</g>
<g>
</g>
<g>
</g>
</svg>
