<?xml version="1.0" encoding="iso-8859-1"?>
<!-- Generator: Adobe Illustrator 19.0.0, SVG Export Plug-In . SVG Version: 6.00 Build 0)  -->
<svg version="1.1" id="Capa_1" xmlns="http://www.w3.org/2000/svg" xmlns:xlink="http://www.w3.org/1999/xlink" x="0px" y="0px"
	 viewBox="0 0 512 512" style="enable-background:new 0 0 512 512;" xml:space="preserve">
<g>
	<g>
		<path d="M437.02,74.98C388.667,26.629,324.38,0,256,0S123.333,26.629,74.98,74.98C26.629,123.333,0,187.62,0,256
			s26.629,132.667,74.98,181.02C123.333,485.371,187.62,512,256,512s132.667-26.629,181.02-74.98
			C485.371,388.667,512,324.38,512,256S485.371,123.333,437.02,74.98z M64.604,356.027l34.265-14.038l-15.164-37.014l-34.314,14.058
			c-4.222-13.812-7.089-28.208-8.457-43.033H78v-40H40.934c1.456-15.782,4.614-31.077,9.294-45.7l34.125,14.5l15.643-36.814
			L65.91,153.502c6.817-12.593,14.851-24.433,23.94-35.368l26.142,26.143l28.285-28.284L118.134,89.85
			c11.646-9.68,24.324-18.154,37.839-25.246l14.038,34.265l37.014-15.164l-14.058-34.314c13.812-4.222,28.208-7.089,43.033-8.457V78
			h40V40.934c15.782,1.456,31.077,4.614,45.7,9.294l-14.5,34.125l36.815,15.643l14.483-34.086
			c10.534,5.703,20.539,12.259,29.93,19.57L213.611,214.815l-4.229,4.246L85.283,388.172
			C77.485,378.124,70.557,367.371,64.604,356.027z M334.191,175.362l-68.029,97.826c-11.298,7.75-52.863,36.257-94.395,64.74
			l68.07-92.76L334.191,175.362z M461.772,321.7l-34.125-14.5l-15.643,36.814l34.086,14.483
			c-6.817,12.593-14.851,24.433-23.94,35.368l-26.142-26.143l-28.285,28.284l26.143,26.143
			c-11.646,9.68-24.324,18.154-37.839,25.246l-14.038-34.265l-37.014,15.164l14.058,34.314c-13.812,4.222-28.208,7.089-43.033,8.457
			V434h-40v37.066c-15.782-1.456-31.077-4.614-45.7-9.294l14.5-34.125l-36.815-15.643l-14.483,34.086
			c-12.324-6.672-23.931-14.505-34.67-23.355l170.791-117.133c2.996-2.055,5.662-3.884,7.785-7.282l125.05-179.822
			c9.554,11.545,17.921,24.103,24.938,37.476l-34.265,14.038l15.164,37.014l34.314-14.058c4.222,13.812,7.089,28.208,8.457,43.033
			H434v40h37.066C469.61,291.782,466.452,307.077,461.772,321.7z"/>
	</g>
</g>
<g>
</g>
<g>
</g>
<g>
</g>
<g>
</g>
<g>
</g>
<g>
</g>
<g>
</g>
<g>
</g>
<g>
</g>
<g>
</g>
<g>
</g>
<g>
</g>
<g>
</g>
<g>
</g>
<g>
</g>
</svg>
