<?xml version="1.0" encoding="iso-8859-1"?>
<!-- Generator: Adobe Illustrator 19.0.0, SVG Export Plug-In . SVG Version: 6.00 Build 0)  -->
<svg version="1.1" id="Capa_1" xmlns="http://www.w3.org/2000/svg" xmlns:xlink="http://www.w3.org/1999/xlink" x="0px" y="0px"
	 viewBox="0 0 512 512" style="enable-background:new 0 0 512 512;" xml:space="preserve">
<g>
	<g>
		<path d="M384,0H128C94.916,0,68,26.916,68,60v392c0,33.084,26.916,60,60,60h256c33.084,0,60-26.916,60-60V60
			C444,26.916,417.084,0,384,0z M404,452c0,11.028-8.972,20-20,20H128c-11.028,0-20-8.972-20-20V60c0-11.028,8.972-20,20-20h256
			c11.028,0,20,8.972,20,20V452z"/>
	</g>
</g>
<g>
	<g>
		<rect x="216" y="80.12" width="80" height="40"/>
	</g>
</g>
<g>
	<g>
		<circle cx="166" cy="100.122" r="20"/>
	</g>
</g>
<g>
	<g>
		<rect x="236" y="392.12" width="40" height="40"/>
	</g>
</g>
<g>
</g>
<g>
</g>
<g>
</g>
<g>
</g>
<g>
</g>
<g>
</g>
<g>
</g>
<g>
</g>
<g>
</g>
<g>
</g>
<g>
</g>
<g>
</g>
<g>
</g>
<g>
</g>
<g>
</g>
</svg>
