<?xml version="1.0" encoding="iso-8859-1"?>
<!-- Generator: Adobe Illustrator 19.0.0, SVG Export Plug-In . SVG Version: 6.00 Build 0)  -->
<svg version="1.1" id="Capa_1" xmlns="http://www.w3.org/2000/svg" xmlns:xlink="http://www.w3.org/1999/xlink" x="0px" y="0px"
	 viewBox="0 0 512 512" style="enable-background:new 0 0 512 512;" xml:space="preserve">
<g>
	<g>
		<path d="M374.226,0.499h-70.819v39.922h70.819c11.58,0,21.002,9.402,21.002,20.959v70.862h39.922V61.38
			C435.15,27.81,407.819,0.499,374.226,0.499z"/>
	</g>
</g>
<g>
	<g>
		<rect x="395.268" y="172.164" width="39.922" height="91.821"/>
	</g>
</g>
<g>
	<g>
		<path d="M60.881,0.543C27.311,0.543,0,27.874,0,61.467v70.819h39.922V61.467c0-11.581,9.402-21.002,20.959-21.002h70.862V0.543
			H60.881z"/>
	</g>
</g>
<g>
	<g>
		<rect x="171.665" y="0.499" width="91.821" height="39.922"/>
	</g>
</g>
<g>
	<g>
		<rect x="171.665" y="395.727" width="91.821" height="39.922"/>
	</g>
</g>
<g>
	<g>
		<path d="M60.968,395.727c-11.581,0-21.003-9.402-21.003-20.959v-70.862H0.043v70.862c0,33.57,27.331,60.881,60.924,60.881h70.819
			v-39.922H60.968z"/>
	</g>
</g>
<g>
	<g>
		<rect y="172.164" width="39.922" height="91.821"/>
	</g>
</g>
<g>
	<g>
		<polygon points="435.15,395.727 435.15,303.906 395.228,303.906 395.228,395.727 303.407,395.727 303.407,435.649 
			395.228,435.649 395.228,511.501 435.15,511.501 435.15,435.649 512,435.649 512,395.727 		"/>
	</g>
</g>
<g>
</g>
<g>
</g>
<g>
</g>
<g>
</g>
<g>
</g>
<g>
</g>
<g>
</g>
<g>
</g>
<g>
</g>
<g>
</g>
<g>
</g>
<g>
</g>
<g>
</g>
<g>
</g>
<g>
</g>
</svg>
