<?xml version="1.0" encoding="iso-8859-1"?>
<!-- Generator: Adobe Illustrator 19.0.0, SVG Export Plug-In . SVG Version: 6.00 Build 0)  -->
<svg version="1.1" id="Capa_1" xmlns="http://www.w3.org/2000/svg" xmlns:xlink="http://www.w3.org/1999/xlink" x="0px" y="0px"
	 viewBox="0 0 512 512" style="enable-background:new 0 0 512 512;" xml:space="preserve">
<g>
	<g>
		<rect x="236" width="40" height="276"/>
	</g>
</g>
<g>
	<g>
		<path d="M429.24,93.76C397.462,61.981,358.491,40.009,316,29.361v41.605C399.854,96.682,461,174.831,461,267
			c0,113.037-91.963,205-205,205S51,380.037,51,267c0-92.169,61.146-170.318,145-196.034V29.361
			c-42.491,10.648-81.462,32.62-113.24,64.399C36.485,140.035,11,201.56,11,267s25.485,126.965,71.76,173.24S190.56,512,256,512
			s126.965-25.485,173.24-71.76C475.515,393.965,501,332.44,501,267S475.515,140.035,429.24,93.76z"/>
	</g>
</g>
<g>
</g>
<g>
</g>
<g>
</g>
<g>
</g>
<g>
</g>
<g>
</g>
<g>
</g>
<g>
</g>
<g>
</g>
<g>
</g>
<g>
</g>
<g>
</g>
<g>
</g>
<g>
</g>
<g>
</g>
</svg>
