<?xml version="1.0" encoding="iso-8859-1"?>
<!-- Generator: Adobe Illustrator 19.0.0, SVG Export Plug-In . SVG Version: 6.00 Build 0)  -->
<svg version="1.1" id="Capa_1" xmlns="http://www.w3.org/2000/svg" xmlns:xlink="http://www.w3.org/1999/xlink" x="0px" y="0px"
	 viewBox="0 0 512.604 512.604" style="enable-background:new 0 0 512.604 512.604;" xml:space="preserve">
<g>
	<g>
		<path d="M474.555,36.326C472.719,34.842,428.797,0,359.391,0c-36.044,0-72.204,17.041-107.172,33.521
			c-32.412,15.275-63.026,29.703-90.111,29.703c-41.82,0-76.48-15.529-91.462-23.466V0.171H30.611v512.432h40.034v-168.79
			c21.885,9.485,54.08,19.665,91.462,19.665c36.098,0,72.28-17.275,107.27-33.981c32.39-15.466,62.985-30.073,90.014-30.073
			c53.836,0,88.664,26.397,90.046,27.466l32.555,26.877V42.335L474.555,36.326z M441.958,276.839
			c-19.868-8.841-48.068-17.449-82.568-17.449c-36.096,0-72.276,17.275-107.265,33.98c-32.391,15.466-62.988,30.074-90.019,30.074
			c-40.979,0-75.087-15.354-90.461-23.608V84.481c21.831,9.125,53.63,18.777,90.461,18.777c36.046,0,72.207-17.041,107.177-33.523
			c32.409-15.274,63.023-29.701,90.106-29.701c39.969,0,69.461,14.55,82.568,22.483V276.839z"/>
	</g>
</g>
<g>
</g>
<g>
</g>
<g>
</g>
<g>
</g>
<g>
</g>
<g>
</g>
<g>
</g>
<g>
</g>
<g>
</g>
<g>
</g>
<g>
</g>
<g>
</g>
<g>
</g>
<g>
</g>
<g>
</g>
</svg>
