<?xml version="1.0" encoding="iso-8859-1"?>
<!-- Generator: Adobe Illustrator 19.0.0, SVG Export Plug-In . SVG Version: 6.00 Build 0)  -->
<svg version="1.1" id="Capa_1" xmlns="http://www.w3.org/2000/svg" xmlns:xlink="http://www.w3.org/1999/xlink" x="0px" y="0px"
	 viewBox="0 0 512 512" style="enable-background:new 0 0 512 512;" xml:space="preserve">
<g>
	<g>
		<path d="M276,472v-90h6.164c4.875,0,9.711-0.37,14.475-1.077L257.716,342h-27.879c-30.129,0-55.026-22.768-58.426-52h34.306
			L131,215.284v67.879C131,337.662,175.338,382,229.836,382H236v90H132v40h250v-40H276z"/>
	</g>
</g>
<g>
	<g>
		<path d="M365.131,336.846c10.297-15.9,15.869-34.492,15.869-53.683V98.836c0-1.549-0.041-3.088-0.111-4.619V91h-0.199
			c-4.008-50.849-46.665-91-98.526-91h-52.327c-51.861,0-94.518,40.151-98.526,91h-0.199v3.218c-0.071,1.531-0.111,3.07-0.111,4.619
			v3.879L28.642,0.358L0.358,28.642l483,483l28.284-28.284L365.131,336.846z M335.743,307.459L318.284,290h22.304
			C339.881,296.063,338.243,301.947,335.743,307.459z M341,171h-65v40h65v39h-62.716L236,207.716V171h-36.716L171,142.716V131h65V91
			h-64.463c3.846-28.749,28.515-51,58.299-51h52.327c29.784,0,54.453,22.251,58.299,51H276v40h65V171z"/>
	</g>
</g>
<g>
</g>
<g>
</g>
<g>
</g>
<g>
</g>
<g>
</g>
<g>
</g>
<g>
</g>
<g>
</g>
<g>
</g>
<g>
</g>
<g>
</g>
<g>
</g>
<g>
</g>
<g>
</g>
<g>
</g>
</svg>
