<?xml version="1.0" encoding="iso-8859-1"?>
<!-- Generator: Adobe Illustrator 19.0.0, SVG Export Plug-In . SVG Version: 6.00 Build 0)  -->
<svg version="1.1" id="Capa_1" xmlns="http://www.w3.org/2000/svg" xmlns:xlink="http://www.w3.org/1999/xlink" x="0px" y="0px"
	 viewBox="0 0 512 512" style="enable-background:new 0 0 512 512;" xml:space="preserve">
<g>
	<g>
		<path d="M256,0C159.142,0,80.343,78.799,80.343,175.657v276.46c0,33.02,26.864,59.883,59.883,59.883h231.548
			c33.02,0,59.883-26.864,59.883-59.883v-276.46C431.657,78.799,352.858,0,256,0z M256,39.922
			c74.21,0,134.69,59.864,135.711,133.837H120.289C121.31,99.786,181.79,39.922,256,39.922z M391.735,452.117
			c0,11.007-8.955,19.961-19.961,19.961H140.226c-11.007,0-19.961-8.955-19.961-19.961V213.681h31.938v80.744
			c0,33.02,26.864,59.883,59.883,59.883c33.02,0,59.883-26.864,59.883-59.883v-0.803c0-11.007,8.954-19.961,19.961-19.961
			s19.961,8.954,19.961,19.961v63.681c0,33.02,26.864,59.883,59.883,59.883c6.997,0,13.713-1.218,19.961-3.433V452.117z
			 M391.735,357.302c0,11.007-8.955,19.961-19.961,19.961s-19.961-8.955-19.961-19.961v-63.681
			c0-33.019-26.864-59.883-59.883-59.883c-33.019,0-59.883,26.864-59.883,59.883v0.803c0,11.007-8.955,19.961-19.961,19.961
			c-11.006,0-19.961-8.955-19.961-19.961v-80.744h199.61V357.302z"/>
	</g>
</g>
<g>
</g>
<g>
</g>
<g>
</g>
<g>
</g>
<g>
</g>
<g>
</g>
<g>
</g>
<g>
</g>
<g>
</g>
<g>
</g>
<g>
</g>
<g>
</g>
<g>
</g>
<g>
</g>
<g>
</g>
</svg>
