<?xml version="1.0" encoding="iso-8859-1"?>
<!-- Generator: Adobe Illustrator 19.0.0, SVG Export Plug-In . SVG Version: 6.00 Build 0)  -->
<svg version="1.1" id="Capa_1" xmlns="http://www.w3.org/2000/svg" xmlns:xlink="http://www.w3.org/1999/xlink" x="0px" y="0px"
	 viewBox="0 0 512 512" style="enable-background:new 0 0 512 512;" xml:space="preserve">
<g>
	<g>
		<path d="M437.02,74.98C388.667,26.629,324.38,0,256,0S123.333,26.629,74.98,74.98C26.629,123.333,0,187.62,0,256
			s26.629,132.667,74.98,181.02C123.333,485.371,187.62,512,256,512s132.667-26.629,181.02-74.98
			C485.371,388.667,512,324.38,512,256S485.371,123.333,437.02,74.98z M256,472c-119.103,0-216-96.897-216-216S136.897,40,256,40
			s216,96.897,216,216S375.103,472,256,472z"/>
	</g>
</g>
<g>
	<g>
		<path d="M397.193,303l-26.91-28.555l0.173-0.16C370.113,274.592,335.32,305,254.4,305c-81.858,0-121.302-31.128-121.691-31.442
			l0.13,0.107l-25.678,30.67C109.145,305.996,156.854,345,254.4,345c8.255,0,16.112-0.287,23.6-0.802V358c0,33.084,26.916,60,60,60
			s60-26.916,60-60v-55H397.193z M358,358c0,11.028-8.972,20-20,20s-20-8.972-20-20v-19.244c15.797-3.314,29.08-7.617,40-12.071V358
			z"/>
	</g>
</g>
<g>
	<g>
		<circle cx="344" cy="180.12" r="32"/>
	</g>
</g>
<g>
	<g>
		<circle cx="168" cy="180.12" r="32"/>
	</g>
</g>
<g>
</g>
<g>
</g>
<g>
</g>
<g>
</g>
<g>
</g>
<g>
</g>
<g>
</g>
<g>
</g>
<g>
</g>
<g>
</g>
<g>
</g>
<g>
</g>
<g>
</g>
<g>
</g>
<g>
</g>
</svg>
