<?xml version="1.0" encoding="iso-8859-1"?>
<!-- Generator: Adobe Illustrator 19.0.0, SVG Export Plug-In . SVG Version: 6.00 Build 0)  -->
<svg version="1.1" id="Capa_1" xmlns="http://www.w3.org/2000/svg" xmlns:xlink="http://www.w3.org/1999/xlink" x="0px" y="0px"
	 viewBox="0 0 512 512" style="enable-background:new 0 0 512 512;" xml:space="preserve">
<g>
	<g>
		<path d="M437.02,74.98C388.667,26.629,324.38,0,256,0S123.333,26.629,74.98,74.98C26.629,123.333,0,187.62,0,256
			s26.629,132.667,74.98,181.02C123.333,485.371,187.62,512,256,512s132.667-26.629,181.02-74.98
			C485.371,388.667,512,324.38,512,256S485.371,123.333,437.02,74.98z M256,472c-119.103,0-216-96.897-216-216S136.897,40,256,40
			s216,96.897,216,216S375.103,472,256,472z"/>
	</g>
</g>
<g>
	<g>
		<path d="M256,293c-38.598,0-70,28.262-70,63c0,34.738,31.402,63,70,63c38.598,0,70-28.262,70-63C326,321.262,294.598,293,256,293z
			 M256,379c-16.262,0-30-10.533-30-23c0-12.467,13.738-23,30-23c16.262,0,30,10.533,30,23C286,368.467,272.262,379,256,379z"/>
	</g>
</g>
<g>
	<g>
		<ellipse cx="168" cy="180.12" rx="32" ry="50"/>
	</g>
</g>
<g>
	<g>
		<ellipse cx="344" cy="180.24" rx="32" ry="50"/>
	</g>
</g>
<g>
</g>
<g>
</g>
<g>
</g>
<g>
</g>
<g>
</g>
<g>
</g>
<g>
</g>
<g>
</g>
<g>
</g>
<g>
</g>
<g>
</g>
<g>
</g>
<g>
</g>
<g>
</g>
<g>
</g>
</svg>
