<?xml version="1.0" encoding="iso-8859-1"?>
<!-- Generator: Adobe Illustrator 19.0.0, SVG Export Plug-In . SVG Version: 6.00 Build 0)  -->
<svg version="1.1" id="Capa_1" xmlns="http://www.w3.org/2000/svg" xmlns:xlink="http://www.w3.org/1999/xlink" x="0px" y="0px"
	 viewBox="0 0 512 512" style="enable-background:new 0 0 512 512;" xml:space="preserve">
<g>
	<g>
		<path d="M511.957,325.139c0.157-2.729-0.229-5.533-1.265-8.254L436.035,120.75L308.436,93.115
			c-4.179-16.999-16.426-30.85-32.434-37.258V0.002h-40v55.856c-9.14,3.659-17.054,9.739-22.941,17.453L78.194,44.906L1.311,246.885
			c-0.988,2.597-1.398,5.271-1.296,7.882c-0.001,0.078-0.012,0.154-0.012,0.233c0,50.178,40.822,91,90.999,91
			c50.178,0,91-40.822,91-90.999c0-2.835-0.598-5.528-1.662-7.972c-0.018-0.047-0.028-0.095-0.046-0.143L122.525,95.12
			l79.809,16.807c2.208,20.129,15.523,36.954,33.668,44.218v315.854H134.002v40h243.999v-40H276.002V156.145
			c11.347-4.542,20.799-12.822,26.834-23.316l91.399,19.795l-62.526,164.261c-0.538,1.413-0.889,2.848-1.096,4.284
			c-0.385,1.55-0.612,3.162-0.612,4.831c0,50.178,40.822,91,90.999,91c50.178,0,90.999-40.822,90.999-91
			C512,325.709,511.969,325.426,511.957,325.139z M91.003,306c-21.026,0-39.122-12.792-46.915-31h93.828
			C130.124,293.208,112.028,306,91.003,306z M132.97,235H48.636l42.167-110.779L132.97,235z M256.002,120.001c-7.72,0-14-6.28-14-14
			c0-7.72,6.28-14,14-14c7.72,0,14,6.28,14,14C270.002,113.721,263.722,120.001,256.002,120.001z M421.202,194.22L463.75,306
			h-85.096L421.202,194.22z M421.001,376.999c-21.026,0-39.122-12.792-46.915-31h93.828
			C460.122,364.207,442.027,376.999,421.001,376.999z"/>
	</g>
</g>
<g>
</g>
<g>
</g>
<g>
</g>
<g>
</g>
<g>
</g>
<g>
</g>
<g>
</g>
<g>
</g>
<g>
</g>
<g>
</g>
<g>
</g>
<g>
</g>
<g>
</g>
<g>
</g>
<g>
</g>
</svg>
