<?xml version="1.0" encoding="iso-8859-1"?>
<!-- Generator: Adobe Illustrator 19.0.0, SVG Export Plug-In . SVG Version: 6.00 Build 0)  -->
<svg version="1.1" id="Capa_1" xmlns="http://www.w3.org/2000/svg" xmlns:xlink="http://www.w3.org/1999/xlink" x="0px" y="0px"
	 viewBox="0 0 512.012 512.012" style="enable-background:new 0 0 512.012 512.012;" xml:space="preserve">
<g>
	<g>
		<rect x="236.392" y="8.346" transform="matrix(0.7071 -0.7071 0.7071 0.7071 55.2796 189.4592)" width="39.89" height="39.31"/>
	</g>
</g>
<g>
	<g>
		
			<rect x="235.732" y="464.356" transform="matrix(0.7071 -0.7071 0.7071 0.7071 -267.3612 322.5546)" width="39.89" height="39.31"/>
	</g>
</g>
<g>
	<g>
		
			<rect x="432.944" y="120.589" transform="matrix(0.2502 -0.9682 0.9682 0.2502 203.2953 543.5764)" width="39.31" height="39.889"/>
	</g>
</g>
<g>
	<g>
		
			<rect x="39.759" y="351.539" transform="matrix(0.2502 -0.9682 0.9682 0.2502 -315.1194 336.0629)" width="39.31" height="39.889"/>
	</g>
</g>
<g>
	<g>
		<rect x="39.469" y="120.879" transform="matrix(0.9682 -0.2502 0.2502 0.9682 -33.2719 19.3349)" width="39.889" height="39.31"/>
	</g>
</g>
<g>
	<g>
		<path d="M441.938,281.518l-71.779,18.548l-59.863-35.278c0.461-2.861,0.709-5.791,0.709-8.78s-0.248-5.919-0.709-8.78
			l59.863-35.278l71.779,18.548l10.007-38.728l-60.441-15.618c3.591-13.897,8.218-31.786,10.618-41.065l5.009-19.363l-38.726-10.017
			l-18.556,71.783l-59.893,35.296c-4.202-3.308-8.894-6.015-13.951-7.997v-69.497l52.422-52.422l-28.284-28.284l-44.142,44.142
			c-9.046-9.047-20.785-20.789-29.988-29.997l-14.139-14.146l-28.291,28.277l52.422,52.433v69.494
			c-5.057,1.982-9.749,4.689-13.951,7.997l-59.893-35.296l-18.556-71.783l-38.726,10.017l5.009,19.363
			c2.4,9.279,7.026,27.169,10.618,41.065L60.065,191.77l10.007,38.728l71.779-18.548l59.863,35.278
			c-0.461,2.861-0.709,5.791-0.709,8.78c0,2.989,0.248,5.919,0.709,8.78l-59.863,35.278l-71.779-18.548l-10.007,38.728
			l60.441,15.618c-3.591,13.896-8.218,31.786-10.618,41.065l-5.009,19.363l38.726,10.017l18.556-71.783l59.893-35.295
			c4.202,3.308,8.894,6.015,13.951,7.997v69.497l-52.422,52.422l28.284,28.284l44.142-44.142
			c9.046,9.047,20.785,20.789,29.988,29.997l14.139,14.146l28.291-28.277l-52.422-52.434v-69.494
			c5.057-1.982,9.749-4.689,13.951-7.997l59.893,35.295l18.556,71.783l38.726-10.017l-5.009-19.363
			c-2.401-9.277-7.027-27.167-10.618-41.064l60.441-15.618L441.938,281.518z M256.005,271.008c-8.271,0-15-6.729-15-15
			s6.729-15,15-15s15,6.729,15,15S264.276,271.008,256.005,271.008z"/>
	</g>
</g>
<g>
	<g>
		
			<rect x="432.653" y="351.828" transform="matrix(0.9682 -0.2502 0.2502 0.9682 -78.5498 125.0551)" width="39.889" height="39.31"/>
	</g>
</g>
<g>
</g>
<g>
</g>
<g>
</g>
<g>
</g>
<g>
</g>
<g>
</g>
<g>
</g>
<g>
</g>
<g>
</g>
<g>
</g>
<g>
</g>
<g>
</g>
<g>
</g>
<g>
</g>
<g>
</g>
</svg>
