<?xml version="1.0" encoding="iso-8859-1"?>
<!-- Generator: Adobe Illustrator 19.0.0, SVG Export Plug-In . SVG Version: 6.00 Build 0)  -->
<svg version="1.1" id="Capa_1" xmlns="http://www.w3.org/2000/svg" xmlns:xlink="http://www.w3.org/1999/xlink" x="0px" y="0px"
	 viewBox="0 0 512 512" style="enable-background:new 0 0 512 512;" xml:space="preserve">
<g>
	<g>
		<path d="M275.499,472v-90h6.164c54.499,0,98.836-44.338,98.836-98.836V98.836c0-1.549-0.041-3.088-0.111-4.619V91h-0.199
			c-4.008-50.849-46.665-91-98.526-91h-52.327c-51.861,0-94.518,40.151-98.526,91h-0.199v3.218c-0.071,1.531-0.111,3.07-0.111,4.619
			v184.327c0,54.499,44.338,98.836,98.836,98.836h6.164v90h-104v40h250v-40H275.499z M229.335,342
			c-30.129,0-55.026-22.768-58.426-52h64.59v-40h-65v-39h65v-40h-65v-40h65V91h-64.462c3.845-28.749,28.515-51,58.299-51h52.327
			c29.784,0,54.453,22.251,58.299,51h-64.463v40h65v40h-65v40h65v39h-65v40h64.59c-3.4,29.232-28.297,52-58.426,52H229.335z"/>
	</g>
</g>
<g>
</g>
<g>
</g>
<g>
</g>
<g>
</g>
<g>
</g>
<g>
</g>
<g>
</g>
<g>
</g>
<g>
</g>
<g>
</g>
<g>
</g>
<g>
</g>
<g>
</g>
<g>
</g>
<g>
</g>
</svg>
