<?xml version="1.0" encoding="iso-8859-1"?>
<!-- Generator: Adobe Illustrator 19.0.0, SVG Export Plug-In . SVG Version: 6.00 Build 0)  -->
<svg version="1.1" id="Capa_1" xmlns="http://www.w3.org/2000/svg" xmlns:xlink="http://www.w3.org/1999/xlink" x="0px" y="0px"
	 viewBox="0 0 512 512" style="enable-background:new 0 0 512 512;" xml:space="preserve">
<g>
	<g>
		<rect y="152" width="45" height="40"/>
	</g>
</g>
<g>
	<g>
		
			<rect x="24.874" y="258.173" transform="matrix(0.8931 -0.4498 0.4498 0.8931 -119.9274 51.6053)" width="47.517" height="39.999"/>
	</g>
</g>
<g>
	<g>
		<rect x="28.142" y="39.82" transform="matrix(0.4498 -0.8931 0.8931 0.4498 -29.7974 77.6684)" width="39.999" height="46.399"/>
	</g>
</g>
<g>
	<g>
		<rect x="467" y="152" width="45" height="40"/>
	</g>
</g>
<g>
	<g>
		<rect x="443.39" y="254.41" transform="matrix(0.4498 -0.8931 0.8931 0.4498 6.5125 566.909)" width="39.999" height="47.517"/>
	</g>
</g>
<g>
	<g>
		<rect x="440.67" y="43.011" transform="matrix(0.8931 -0.4498 0.4498 0.8931 21.2339 215.3884)" width="46.399" height="39.999"/>
	</g>
</g>
<g>
	<g>
		<path d="M427.996,170.857C427.378,76.541,350.459,0,256,0S84.622,76.541,84.004,170.857L84,172h0.002
			c0.317,68.687,29.205,106.7,54.708,140.261c21.331,28.07,38.178,50.241,38.178,87.151V452c0,33.084,26.916,60,60,60h38.223
			c33.084,0,60-26.916,60-60v-52.587c0-36.911,16.848-59.082,38.178-87.151C398.793,278.7,427.681,240.687,427.998,172l0.002-1.143
			H427.996z M295.111,452c0,11.028-8.972,20-20,20h-38.223c-11.028,0-20-8.972-20-20v-39h78.223V452z M341.441,288.06
			c-18.507,24.355-37.527,49.383-44.007,84.94h-82.869c-6.48-35.557-25.5-60.585-44.007-84.94
			c-23.853-31.389-46.387-61.044-46.558-116.569C124.275,98.938,183.384,40,256,40s131.725,58.938,131.999,131.491
			C387.829,227.016,365.294,256.671,341.441,288.06z"/>
	</g>
</g>
<g>
</g>
<g>
</g>
<g>
</g>
<g>
</g>
<g>
</g>
<g>
</g>
<g>
</g>
<g>
</g>
<g>
</g>
<g>
</g>
<g>
</g>
<g>
</g>
<g>
</g>
<g>
</g>
<g>
</g>
</svg>
