<?xml version="1.0" encoding="iso-8859-1"?>
<!-- Generator: Adobe Illustrator 19.0.0, SVG Export Plug-In . SVG Version: 6.00 Build 0)  -->
<svg version="1.1" id="Capa_1" xmlns="http://www.w3.org/2000/svg" xmlns:xlink="http://www.w3.org/1999/xlink" x="0px" y="0px"
	 viewBox="0 0 512 512" style="enable-background:new 0 0 512 512;" xml:space="preserve">
<g>
	<g>
		<path d="M314.468,157.197v103.942h31.553v2.312c0,9.888-4.815,19.205-12.881,24.924l-56.652,40.171V109.939h44.546L257.634,0
			l-66.527,109.939h45.404V358.25l-56.652-40.171c-8.066-5.719-12.881-15.037-12.881-24.924v-8.489
			c20.19-7.815,34.552-27.427,34.552-50.342c0-29.759-24.211-53.97-53.97-53.97c-29.76,0-53.97,24.211-53.97,53.97
			c0,22.482,13.821,41.789,33.41,49.891v8.94c0,22.824,11.116,44.333,29.735,57.536l66.895,47.434
			c4.255,3.016,7.593,7.04,9.809,11.615c-17.713,8.862-29.909,27.173-29.909,48.29c0,29.76,24.211,53.97,53.97,53.97
			c29.759,0,53.97-24.211,53.97-53.97c0-23.078-14.564-42.81-34.981-50.511v-14.174c0-9.888,4.815-19.205,12.881-24.924
			l66.895-47.434c18.619-13.202,29.735-34.711,29.735-57.536v-2.312h32.411V157.197H314.468z M147.56,248.316
			c-7.716,0-13.992-6.277-13.992-13.992c0-7.716,6.276-13.992,13.992-13.992c7.716,0,13.992,6.276,13.992,13.992
			C161.552,242.04,155.276,248.316,147.56,248.316z M257.499,472.022c-7.716,0-13.992-6.276-13.992-13.992
			c0-7.716,6.277-13.992,13.992-13.992c7.716,0,13.992,6.276,13.992,13.992C271.491,465.746,265.215,472.022,257.499,472.022z
			 M378.432,221.161h-23.987v-23.987h23.987V221.161z"/>
	</g>
</g>
<g>
</g>
<g>
</g>
<g>
</g>
<g>
</g>
<g>
</g>
<g>
</g>
<g>
</g>
<g>
</g>
<g>
</g>
<g>
</g>
<g>
</g>
<g>
</g>
<g>
</g>
<g>
</g>
<g>
</g>
</svg>
