<?xml version="1.0" encoding="iso-8859-1"?>
<!-- Generator: Adobe Illustrator 19.0.0, SVG Export Plug-In . SVG Version: 6.00 Build 0)  -->
<svg version="1.1" id="Capa_1" xmlns="http://www.w3.org/2000/svg" xmlns:xlink="http://www.w3.org/1999/xlink" x="0px" y="0px"
	 viewBox="0 0 512 512" style="enable-background:new 0 0 512 512;" xml:space="preserve">
<g>
	<g>
		<polygon points="511.42,190.34 483.215,162.135 425.379,219.972 367.543,162.135 339.338,190.34 397.175,248.176 339.338,306.013 
			367.543,334.217 425.379,276.38 483.215,334.217 511.42,306.013 453.583,248.176 		"/>
	</g>
</g>
<g>
	<g>
		<path d="M96.243,160.424h-32.84c-34.053,0-62.822,27.4-62.822,59.831v71.797c0,32.431,28.77,59.831,62.822,59.831h33.22
			L294.748,512V0L96.243,160.424z M84.343,311.996H63.403c-11.789,0-22.935-9.693-22.935-19.944v-71.797
			c0-10.251,11.146-19.944,22.935-19.944h20.941V311.996z M254.861,428.48L124.231,322.91V189.09L254.861,83.52V428.48z"/>
	</g>
</g>
<g>
</g>
<g>
</g>
<g>
</g>
<g>
</g>
<g>
</g>
<g>
</g>
<g>
</g>
<g>
</g>
<g>
</g>
<g>
</g>
<g>
</g>
<g>
</g>
<g>
</g>
<g>
</g>
<g>
</g>
</svg>
