<?xml version="1.0" encoding="iso-8859-1"?>
<!-- Generator: Adobe Illustrator 19.0.0, SVG Export Plug-In . SVG Version: 6.00 Build 0)  -->
<svg version="1.1" id="Capa_1" xmlns="http://www.w3.org/2000/svg" xmlns:xlink="http://www.w3.org/1999/xlink" x="0px" y="0px"
	 viewBox="0 0 512 512" style="enable-background:new 0 0 512 512;" xml:space="preserve">
<g>
	<g>
		<path d="M304.908,222.249H294.89V0L96.384,160.424h-32.84c-34.053,0-62.822,27.4-62.822,59.831v71.797
			c0,32.431,28.77,59.831,62.822,59.831h33.22L294.89,512V289.896l9.899-0.1c18.882,0,34.307-14.918,34.307-33.643
			S323.79,222.249,304.908,222.249z M84.485,311.996H63.544c-11.789,0-22.935-9.693-22.935-19.944v-71.797
			c0-10.251,11.146-19.944,22.935-19.944h20.941V311.996z M255.003,428.48L124.372,322.91V189.09L255.003,83.52V428.48z"/>
	</g>
</g>
<g>
	<g>
		<path d="M334.778,159.426v39.887c31.34,0,56.838,25.498,56.838,56.839s-25.498,56.839-56.838,56.839v39.887
			c53.334,0,96.725-43.391,96.725-96.726S388.112,159.426,334.778,159.426z"/>
	</g>
</g>
<g>
	<g>
		<path d="M334.97,81.647v39.887c75.223,0,136.421,60.614,136.421,135.118S410.193,391.77,334.97,391.77v39.887
			c97.217,0,176.308-78.507,176.308-175.005S432.187,81.647,334.97,81.647z"/>
	</g>
</g>
<g>
</g>
<g>
</g>
<g>
</g>
<g>
</g>
<g>
</g>
<g>
</g>
<g>
</g>
<g>
</g>
<g>
</g>
<g>
</g>
<g>
</g>
<g>
</g>
<g>
</g>
<g>
</g>
<g>
</g>
</svg>
