<?xml version="1.0" encoding="iso-8859-1"?>
<!-- Generator: Adobe Illustrator 19.0.0, SVG Export Plug-In . SVG Version: 6.00 Build 0)  -->
<svg version="1.1" id="Capa_1" xmlns="http://www.w3.org/2000/svg" xmlns:xlink="http://www.w3.org/1999/xlink" x="0px" y="0px"
	 viewBox="0 0 510.534 510.534" style="enable-background:new 0 0 510.534 510.534;" xml:space="preserve">
<g>
	<g>
		<circle cx="254.27" cy="426.267" r="32"/>
	</g>
</g>
<g>
	<g>
		<path d="M496.898,157.704C433.527,89.71,347.712,52.266,255.263,52.267C162.816,52.268,77.005,89.712,13.636,157.702L0,172.333
			l29.261,27.273l13.636-14.631c55.72-59.782,131.14-92.707,212.366-92.708c81.23-0.001,156.652,32.924,212.373,92.708
			l13.636,14.631l29.262-27.272L496.898,157.704z"/>
	</g>
</g>
<g>
	<g>
		<path d="M426.445,237.449c-46.935-47.194-107.729-73.184-171.182-73.183c-63.466,0.002-124.26,25.994-171.182,73.185
			l-14.102,14.183l28.365,28.203l14.101-14.182c39.359-39.585,90.079-61.386,142.818-61.388
			c52.727-0.001,103.447,21.801,142.818,61.389l14.104,14.181l28.363-28.206L426.445,237.449z"/>
	</g>
</g>
<g>
	<g>
		<path d="M349.511,317.117c-25.226-25.2-61.405-40.851-94.423-40.851c-0.004,0-0.011,0-0.015,0h-1.39c-0.007,0-0.009,0-0.015,0
			c-33.018,0-69.201,15.653-94.426,40.85l-14.15,14.135l28.269,28.3l14.15-14.134c17.728-17.709,43.695-29.15,66.16-29.15
			c0.003,0,0.006,0,0.009,0h1.396c0.004,0,0.005,0,0.009,0c22.461,0,48.43,11.442,66.157,29.149l14.149,14.135l28.27-28.3
			L349.511,317.117z"/>
	</g>
</g>
<g>
</g>
<g>
</g>
<g>
</g>
<g>
</g>
<g>
</g>
<g>
</g>
<g>
</g>
<g>
</g>
<g>
</g>
<g>
</g>
<g>
</g>
<g>
</g>
<g>
</g>
<g>
</g>
<g>
</g>
</svg>
