<?xml version="1.0" encoding="iso-8859-1"?>
<!-- Generator: Adobe Illustrator 19.0.0, SVG Export Plug-In . SVG Version: 6.00 Build 0)  -->
<svg version="1.1" id="Capa_1" xmlns="http://www.w3.org/2000/svg" xmlns:xlink="http://www.w3.org/1999/xlink" x="0px" y="0px"
	 viewBox="0 0 512 512" style="enable-background:new 0 0 512 512;" xml:space="preserve">
<g>
	<g>
		<circle cx="384" cy="120" r="32"/>
	</g>
</g>
<g>
	<g>
		<path d="M356,0c-86.019,0-156,69.981-156,156c0,12.05,1.375,23.982,4.097,35.619L0,395.716V512h128v-56h56v-56h56v-56h44.284
			l36.098-36.097C332.018,310.625,343.952,312,356,312c86.019,0,156-69.981,156-156S442.019,0,356,0z M356,272
			c-12.087,0-24.008-1.855-35.43-5.514l-11.618-3.722L267.716,304H200v56h-56v56H88v56H40v-59.716l209.237-209.236l-3.722-11.618
			C241.855,180.009,240,168.089,240,156c0-63.963,52.037-116,116-116s116,52.037,116,116S419.963,272,356,272z"/>
	</g>
</g>
<g>
</g>
<g>
</g>
<g>
</g>
<g>
</g>
<g>
</g>
<g>
</g>
<g>
</g>
<g>
</g>
<g>
</g>
<g>
</g>
<g>
</g>
<g>
</g>
<g>
</g>
<g>
</g>
<g>
</g>
</svg>
