<?xml version="1.0" encoding="iso-8859-1"?>
<!-- Generator: Adobe Illustrator 19.0.0, SVG Export Plug-In . SVG Version: 6.00 Build 0)  -->
<svg version="1.1" id="Capa_1" xmlns="http://www.w3.org/2000/svg" xmlns:xlink="http://www.w3.org/1999/xlink" x="0px" y="0px"
	 viewBox="0 0 512 512" style="enable-background:new 0 0 512 512;" xml:space="preserve">
<g>
	<g>
		<path d="M62.497,342.113l-34.971,19.603c10.816,19.295,24.49,36.783,40.64,51.979l27.471-29.198
			C82.464,372.103,71.314,357.842,62.497,342.113z"/>
	</g>
</g>
<g>
	<g>
		<path d="M124.175,406.347l-21.011,34.141c18.903,11.633,39.381,20.244,60.865,25.592l9.684-38.901
			C156.233,422.827,139.566,415.819,124.175,406.347z"/>
	</g>
</g>
<g>
	<g>
		<path d="M242.129,430.62c-8.258,1.178-16.709,1.775-25.127,1.775c-0.005,0-0.012,0-0.012,0h-0.505
			c-2.397,0-4.822-0.049-7.207-0.145l-1.609,40.059c2.92,0.116,5.886,0.176,8.821,0.176h0.497c0.008,0,0.015,0,0.022,0
			c10.298,0,20.654-0.732,30.779-2.176L242.129,430.62z"/>
	</g>
</g>
<g>
	<g>
		<path d="M301.514,410.867c-7.874,4.307-16.133,8.033-24.549,11.076l13.631,37.701c10.342-3.738,20.489-8.318,30.159-13.606
			L301.514,410.867z"/>
	</g>
</g>
<g>
	<g>
		<path d="M350.296,371.52c-5.881,6.782-12.335,13.169-19.179,18.982l25.954,30.554c8.389-7.126,16.299-14.955,23.51-23.269
			L350.296,371.52z"/>
	</g>
</g>
<g>
	<g>
		<path d="M483.649,237.302l-50.679,50.688V256c0-57.824-22.518-112.189-63.407-153.078
			c-40.888-40.888-95.253-63.407-153.078-63.407c-57.824,0-112.189,22.518-153.078,63.406S0,198.175,0,256
			c0,22.248,3.366,44.193,10.004,65.225l38.231-12.068C42.83,292.034,40.09,274.149,40.09,256
			c0-97.265,79.13-176.395,176.395-176.395S392.879,158.735,392.879,256v31.662l-50.989-50.864l-28.313,28.382l99.576,99.331
			L512,265.646L483.649,237.302z"/>
	</g>
</g>
<g>
</g>
<g>
</g>
<g>
</g>
<g>
</g>
<g>
</g>
<g>
</g>
<g>
</g>
<g>
</g>
<g>
</g>
<g>
</g>
<g>
</g>
<g>
</g>
<g>
</g>
<g>
</g>
<g>
</g>
</svg>
