<?xml version="1.0" encoding="iso-8859-1"?>
<!-- Generator: Adobe Illustrator 19.0.0, SVG Export Plug-In . SVG Version: 6.00 Build 0)  -->
<svg version="1.1" id="Capa_1" xmlns="http://www.w3.org/2000/svg" xmlns:xlink="http://www.w3.org/1999/xlink" x="0px" y="0px"
	 viewBox="0 0 512 512" style="enable-background:new 0 0 512 512;" xml:space="preserve">
<g>
	<g>
		<path d="M437.02,74.98C388.667,26.629,324.38,0,256,0S123.333,26.629,74.98,74.98C26.629,123.333,0,187.62,0,256
			s26.629,132.667,74.98,181.02C123.333,485.371,187.62,512,256,512s132.667-26.629,181.02-74.98
			C485.371,388.667,512,324.38,512,256S485.371,123.333,437.02,74.98z M256,472c-119.103,0-216-96.897-216-216S136.897,40,256,40
			s216,96.897,216,216S375.103,472,256,472z"/>
	</g>
</g>
<g>
	<g>
		<path d="M96.064,292l9.004,26.445c0.378,1.112,9.532,27.532,32.361,53.702C168.162,407.378,209.163,426,256,426
			c46.837,0,87.838-18.622,118.571-53.853c22.829-26.17,31.983-52.59,32.361-53.702L415.935,292H96.064z M343.526,346.877
			C320.411,372.837,290.963,386,256,386s-64.411-13.163-87.527-39.123c-4.477-5.029-8.302-10.098-11.523-14.877h198.099
			C351.829,336.78,348.004,341.848,343.526,346.877z"/>
	</g>
</g>
<g>
	<g>
		<polygon points="178.13,130.846 149.87,159.154 170.11,179.358 118.972,192.643 129.028,231.357 247.89,200.481 		"/>
	</g>
</g>
<g>
	<g>
		<polygon points="341.89,179.358 362.13,159.154 333.87,130.846 264.11,200.481 382.972,231.357 393.028,192.643 		"/>
	</g>
</g>
<g>
</g>
<g>
</g>
<g>
</g>
<g>
</g>
<g>
</g>
<g>
</g>
<g>
</g>
<g>
</g>
<g>
</g>
<g>
</g>
<g>
</g>
<g>
</g>
<g>
</g>
<g>
</g>
<g>
</g>
</svg>
