<?xml version="1.0" encoding="iso-8859-1"?>
<!-- Generator: Adobe Illustrator 19.0.0, SVG Export Plug-In . SVG Version: 6.00 Build 0)  -->
<svg version="1.1" id="Capa_1" xmlns="http://www.w3.org/2000/svg" xmlns:xlink="http://www.w3.org/1999/xlink" x="0px" y="0px"
	 viewBox="0 0 512 512" style="enable-background:new 0 0 512 512;" xml:space="preserve">
<g>
	<g>
		<path d="M449.751,122.217c0-9.247-2.107-18.01-5.861-25.839L512,28.268L483.732,0l-68.11,68.11
			c-7.829-3.754-16.592-5.861-25.839-5.861l-195.917,0.003V0.284H67.962v61.966H0v125.939h67.962v195.882
			c0,33.066,26.901,59.967,59.967,59.967h195.882V512h125.939v-67.962h61.966V318.136H449.75L449.751,122.217z M67.962,148.211
			H39.978v-45.984h27.984V148.211z M193.865,102.23l195.918-0.003c11.022,0,19.989,8.968,19.989,19.99l-0.001,195.917h-45.983
			V148.214l-169.923,0.002V102.23z M193.865,188.194l101.675-0.002l-70.949,70.949l28.268,28.268l70.95-70.95v101.676H193.865
			V188.194z M409.773,472.022h-45.984v-27.984h45.984V472.022z M471.738,358.112v45.948H127.929
			c-11.022,0-19.989-8.967-19.989-19.989V40.262h45.948v317.851H471.738z"/>
	</g>
</g>
<g>
</g>
<g>
</g>
<g>
</g>
<g>
</g>
<g>
</g>
<g>
</g>
<g>
</g>
<g>
</g>
<g>
</g>
<g>
</g>
<g>
</g>
<g>
</g>
<g>
</g>
<g>
</g>
<g>
</g>
</svg>
