<?xml version="1.0" encoding="iso-8859-1"?>
<!-- Generator: Adobe Illustrator 19.0.0, SVG Export Plug-In . SVG Version: 6.00 Build 0)  -->
<svg version="1.1" id="Capa_1" xmlns="http://www.w3.org/2000/svg" xmlns:xlink="http://www.w3.org/1999/xlink" x="0px" y="0px"
	 viewBox="0 0 512 512" style="enable-background:new 0 0 512 512;" xml:space="preserve">
<g>
	<g>
		<path d="M452,0H60C26.916,0,0,26.916,0,60v392c0,33.084,26.916,60,60,60h392c33.084,0,60-26.916,60-60V60
			C512,26.916,485.084,0,452,0z M472,452c0,11.028-8.972,20-20,20H60c-11.028,0-20-8.972-20-20V276h432V452z M472,236H40V60
			c0-11.028,8.972-20,20-20h392c11.028,0,20,8.972,20,20V236z"/>
	</g>
</g>
<g>
	<g>
		<rect x="393" y="315" width="40" height="40"/>
	</g>
</g>
<g>
	<g>
		<rect x="393" y="78" width="40" height="40"/>
	</g>
</g>
<g>
	<g>
		<rect x="393" y="157" width="40" height="40"/>
	</g>
</g>
<g>
	<g>
		<rect x="78" y="315" width="40" height="40"/>
	</g>
</g>
<g>
	<g>
		<rect x="393" y="394" width="40" height="40"/>
	</g>
</g>
<g>
	<g>
		<rect x="78" y="393" width="40" height="40"/>
	</g>
</g>
<g>
	<g>
		<rect x="79" y="79" width="40" height="40"/>
	</g>
</g>
<g>
	<g>
		<rect x="79" y="156" width="40" height="40"/>
	</g>
</g>
<g>
</g>
<g>
</g>
<g>
</g>
<g>
</g>
<g>
</g>
<g>
</g>
<g>
</g>
<g>
</g>
<g>
</g>
<g>
</g>
<g>
</g>
<g>
</g>
<g>
</g>
<g>
</g>
<g>
</g>
</svg>
