<?xml version="1.0" encoding="iso-8859-1"?>
<!-- Generator: Adobe Illustrator 19.0.0, SVG Export Plug-In . SVG Version: 6.00 Build 0)  -->
<svg version="1.1" id="Capa_1" xmlns="http://www.w3.org/2000/svg" xmlns:xlink="http://www.w3.org/1999/xlink" x="0px" y="0px"
	 viewBox="0 0 512 512" style="enable-background:new 0 0 512 512;" xml:space="preserve">
<g>
	<g>
		<path d="M452,105.518H345.926v-20c0-33.084-26.916-60-60-60h-59.852c-33.084,0-60,26.916-60,60v20H60c-33.084,0-60,26.916-60,60
			v260.963c0,33.084,26.916,60,60,60h392c33.084,0,60-26.916,60-60V165.518C512,132.434,485.084,105.518,452,105.518z
			 M206.074,85.518c0-11.028,8.972-20,20-20h59.852c11.028,0,20,8.972,20,20v20h-99.852V85.518z M472,426.48
			c0,11.028-8.972,20-20,20H60c-11.028,0-20-8.972-20-20V257.518h65v53.963h40v-53.963h91v147h40v-147h91v53.963h40v-53.963h65
			V426.48z M472,217.518H40v-52c0-11.028,8.972-20,20-20h392c11.028,0,20,8.972,20,20V217.518z"/>
	</g>
</g>
<g>
</g>
<g>
</g>
<g>
</g>
<g>
</g>
<g>
</g>
<g>
</g>
<g>
</g>
<g>
</g>
<g>
</g>
<g>
</g>
<g>
</g>
<g>
</g>
<g>
</g>
<g>
</g>
<g>
</g>
</svg>
