<?xml version="1.0" encoding="iso-8859-1"?>
<!-- Generator: Adobe Illustrator 19.0.0, SVG Export Plug-In . SVG Version: 6.00 Build 0)  -->
<svg version="1.1" id="Capa_1" xmlns="http://www.w3.org/2000/svg" xmlns:xlink="http://www.w3.org/1999/xlink" x="0px" y="0px"
	 viewBox="0 0 512 512" style="enable-background:new 0 0 512 512;" xml:space="preserve">
<g>
	<g>
		<path d="M420.497,65.192C371.999,56.5,327.33,30.012,305.022,14.997C290.448,5.187,273.497,0,255.999,0
			c-17.497,0-34.449,5.187-49.02,14.996c-22.31,15.016-66.978,41.504-115.477,50.195C62.776,70.34,41.926,95.195,41.926,124.29V245
			c0,39.877,11.156,78.75,33.159,115.538c17.213,28.781,41.064,56.288,70.888,81.757c50.147,42.825,99.802,65.156,101.892,66.086
			l8.134,3.619l8.135-3.62c2.089-0.929,51.745-23.26,101.892-66.086c29.823-25.468,53.674-52.976,70.888-81.757
			c22.003-36.788,33.159-75.661,33.159-115.538V124.29C470.073,95.195,449.223,70.34,420.497,65.192z M430.059,244.999
			c0,59.45-30.033,115.375-89.267,166.224c-34.435,29.56-69.393,48.826-84.792,56.643c-15.41-7.823-50.364-27.087-84.793-56.643
			c-59.234-50.85-89.267-106.775-89.267-166.224V124.29c0-9.695,6.99-17.985,16.621-19.712
			c55.715-9.984,105.841-39.613,130.762-56.387c7.946-5.35,17.171-8.177,26.677-8.177c9.506,0,18.73,2.827,26.678,8.178
			c24.92,16.773,75.045,46.402,130.76,56.386c9.63,1.727,16.621,10.016,16.621,19.712V244.999z"/>
	</g>
</g>
<g>
	<g>
		<path d="M375.639,136.698c-45.107-13.151-84.044-34.99-108.766-50.997l-10.874-7.04l-10.874,7.04
			c-24.723,16.007-63.661,37.847-108.766,50.997l-14.407,4.201v104.099c0,25.564,7.135,49.92,21.814,74.461
			c12.745,21.311,30.974,42.163,54.177,61.979c14.295,12.208,30.281,23.825,47.514,34.527l10.555,6.555l10.556-6.555
			c18.323-11.38,35.246-23.812,50.299-36.954c22.437-19.588,40.032-40.153,52.295-61.123c14.052-24.029,20.883-47.872,20.883-72.889
			v-104.1L375.639,136.698z M350.032,244.998c0,17.723-5.041,34.957-15.41,52.69c-10.073,17.226-24.901,34.444-44.069,51.179
			c-10.514,9.178-22.095,17.997-34.541,26.309c-11.506-7.681-22.262-15.779-32.082-24.166
			c-19.894-16.989-35.311-34.515-45.823-52.089c-10.861-18.157-16.14-35.795-16.14-53.922v-74.403
			c37.484-12.569,70.149-29.849,94.033-44.463c23.882,14.612,56.546,31.892,94.032,44.462V244.998z"/>
	</g>
</g>
<g>
</g>
<g>
</g>
<g>
</g>
<g>
</g>
<g>
</g>
<g>
</g>
<g>
</g>
<g>
</g>
<g>
</g>
<g>
</g>
<g>
</g>
<g>
</g>
<g>
</g>
<g>
</g>
<g>
</g>
</svg>
