<?xml version="1.0" encoding="iso-8859-1"?>
<!-- Generator: Adobe Illustrator 19.0.0, SVG Export Plug-In . SVG Version: 6.00 Build 0)  -->
<svg version="1.1" id="Capa_1" xmlns="http://www.w3.org/2000/svg" xmlns:xlink="http://www.w3.org/1999/xlink" x="0px" y="0px"
	 viewBox="0 0 512 512" style="enable-background:new 0 0 512 512;" xml:space="preserve">
<g>
	<g>
		<path d="M415,0H97C63.916,0,37,26.916,37,60v392c0,33.084,26.916,60,60,60h318c33.084,0,60-26.916,60-60V60
			C475,26.916,448.084,0,415,0z M435,452c0,11.028-8.972,20-20,20H97c-11.028,0-20-8.972-20-20V172h358V452z M435,132H77V60
			c0-11.028,8.972-20,20-20h318c11.028,0,20,8.972,20,20V132z"/>
	</g>
</g>
<g>
	<g>
		<rect x="350" y="302.08" width="40" height="115.92"/>
	</g>
</g>
<g>
	<g>
		<rect x="123" y="226" width="40" height="40"/>
	</g>
</g>
<g>
	<g>
		<rect x="199" y="226" width="40" height="40"/>
	</g>
</g>
<g>
	<g>
		<rect x="274" y="226" width="40" height="40"/>
	</g>
</g>
<g>
	<g>
		<rect x="123" y="302" width="40" height="40"/>
	</g>
</g>
<g>
	<g>
		<rect x="199" y="302" width="40" height="40"/>
	</g>
</g>
<g>
	<g>
		<rect x="274" y="302" width="40" height="40"/>
	</g>
</g>
<g>
	<g>
		<rect x="350" y="226" width="40" height="40"/>
	</g>
</g>
<g>
	<g>
		<rect x="123" y="378" width="40" height="40"/>
	</g>
</g>
<g>
	<g>
		<rect x="199" y="378" width="40" height="40"/>
	</g>
</g>
<g>
	<g>
		<rect x="274" y="378" width="40" height="40"/>
	</g>
</g>
<g>
</g>
<g>
</g>
<g>
</g>
<g>
</g>
<g>
</g>
<g>
</g>
<g>
</g>
<g>
</g>
<g>
</g>
<g>
</g>
<g>
</g>
<g>
</g>
<g>
</g>
<g>
</g>
<g>
</g>
</svg>
