<?xml version="1.0" encoding="iso-8859-1"?>
<!-- Generator: Adobe Illustrator 19.0.0, SVG Export Plug-In . SVG Version: 6.00 Build 0)  -->
<svg version="1.1" id="Capa_1" xmlns="http://www.w3.org/2000/svg" xmlns:xlink="http://www.w3.org/1999/xlink" x="0px" y="0px"
	 viewBox="0 0 512 512" style="enable-background:new 0 0 512 512;" xml:space="preserve">
<g>
	<g>
		<rect x="348" y="177" width="84" height="40"/>
	</g>
</g>
<g>
	<g>
		<path d="M452,97H329c-2.33,0-4.428-1.271-5.508-3.326l-20.356-42.773c-0.055-0.118-0.112-0.234-0.17-0.35
			C295.086,34.791,279.245,25,261.624,25H152.952c-17.621,0-33.462,9.791-41.343,25.55c-0.057,0.117-0.114,0.233-0.17,0.35
			L91.082,93.674C90.003,95.729,87.905,97,85.575,97H60c-33.084,0-60,26.916-60,60v270c0,33.084,26.916,60,60,60h392
			c33.084,0,60-26.916,60-60V157C512,123.916,485.084,97,452,97z M472,427c0,11.028-8.972,20-20,20H60c-11.028,0-20-8.972-20-20V157
			c0-11.028,8.972-20,20-20h25.575c17.621,0,33.462-9.791,41.343-25.55c0.057-0.117,0.114-0.233,0.17-0.35l20.357-42.774
			c1.079-2.055,3.177-3.326,5.507-3.326h108.671c2.33,0,4.428,1.271,5.507,3.326l20.358,42.773c0.055,0.118,0.112,0.234,0.17,0.35
			C295.538,127.209,311.379,137,329,137h123c11.028,0,20,8.972,20,20V427z"/>
	</g>
</g>
<g>
	<g>
		<path d="M205,157c-68.925,0-125,56.075-125,125s56.075,125,125,125s125-56.075,125-125S273.925,157,205,157z M205,367
			c-46.869,0-85-38.131-85-85s38.131-85,85-85s85,38.131,85,85C290,328.869,251.869,367,205,367z"/>
	</g>
</g>
<g>
</g>
<g>
</g>
<g>
</g>
<g>
</g>
<g>
</g>
<g>
</g>
<g>
</g>
<g>
</g>
<g>
</g>
<g>
</g>
<g>
</g>
<g>
</g>
<g>
</g>
<g>
</g>
<g>
</g>
</svg>
