<?xml version="1.0" encoding="iso-8859-1"?>
<!-- Generator: Adobe Illustrator 19.0.0, SVG Export Plug-In . SVG Version: 6.00 Build 0)  -->
<svg version="1.1" id="Capa_1" xmlns="http://www.w3.org/2000/svg" xmlns:xlink="http://www.w3.org/1999/xlink" x="0px" y="0px"
	 viewBox="0 0 512 512" style="enable-background:new 0 0 512 512;" xml:space="preserve">
<g>
	<g>
		<path d="M437.02,74.98C388.667,26.629,324.38,0,256,0S123.333,26.629,74.98,74.98C26.629,123.333,0,187.62,0,256
			s26.629,132.667,74.98,181.02C123.333,485.371,187.62,512,256,512s132.667-26.629,181.02-74.98
			C485.371,388.667,512,324.38,512,256S485.371,123.333,437.02,74.98z M276,471.066V434h-40v37.066
			C132.827,461.547,50.444,379.172,40.926,276H78v-40H40.926C50.444,132.828,132.827,50.453,236,40.934V78h40V40.934
			C379.172,50.453,461.547,132.827,471.065,236H434v40h37.065C461.547,379.173,379.172,461.547,276,471.066z"/>
	</g>
</g>
<g>
	<g>
		<path d="M203,203l-78.938,184.938l171.89-73.365c8.239-3.518,13.289-5.675,16.32-13.235L387.94,124.06L203,203z M199.939,312.062
			l25.08-58.759l33.679,33.679C241.763,294.211,219.543,303.695,199.939,312.062z M286.981,258.696l-33.677-33.677l58.756-25.079
			L286.981,258.696z"/>
	</g>
</g>
<g>
</g>
<g>
</g>
<g>
</g>
<g>
</g>
<g>
</g>
<g>
</g>
<g>
</g>
<g>
</g>
<g>
</g>
<g>
</g>
<g>
</g>
<g>
</g>
<g>
</g>
<g>
</g>
<g>
</g>
</svg>
