<?xml version="1.0" encoding="iso-8859-1"?>
<!-- Generator: Adobe Illustrator 19.0.0, SVG Export Plug-In . SVG Version: 6.00 Build 0)  -->
<svg version="1.1" id="Capa_1" xmlns="http://www.w3.org/2000/svg" xmlns:xlink="http://www.w3.org/1999/xlink" x="0px" y="0px"
	 viewBox="0 0 512 512" style="enable-background:new 0 0 512 512;" xml:space="preserve">
<g>
	<g>
		<path d="M380,124H132C59.215,124,0,183.215,0,256s59.215,132,132,132h248c72.785,0,132-59.215,132-132S452.785,124,380,124z
			 M132,348c-50.729,0-92-41.271-92-92s41.271-92,92-92s92,41.271,92,92S182.729,348,132,348z M226.559,164h49.526l-28.432,28.432
			C241.906,182.018,234.793,172.462,226.559,164z M262.228,234.427L332.654,164H380c2.967,0,5.899,0.147,8.795,0.423
			L258.076,295.141C261.925,282.769,264,269.622,264,256C264,248.654,263.387,241.449,262.228,234.427z M261.787,348
			l168.802-168.802c11.425,7.551,21.077,17.576,28.179,29.312L319.278,348H261.787z M380,348h-4.153l96.059-96.058
			C471.964,253.288,472,254.64,472,256C472,306.729,430.729,348,380,348z"/>
	</g>
</g>
<g>
</g>
<g>
</g>
<g>
</g>
<g>
</g>
<g>
</g>
<g>
</g>
<g>
</g>
<g>
</g>
<g>
</g>
<g>
</g>
<g>
</g>
<g>
</g>
<g>
</g>
<g>
</g>
<g>
</g>
</svg>
