<?xml version="1.0" encoding="iso-8859-1"?>
<!-- Generator: Adobe Illustrator 19.0.0, SVG Export Plug-In . SVG Version: 6.00 Build 0)  -->
<svg version="1.1" id="Capa_1" xmlns="http://www.w3.org/2000/svg" xmlns:xlink="http://www.w3.org/1999/xlink" x="0px" y="0px"
	 viewBox="0 0 512 512" style="enable-background:new 0 0 512 512;" xml:space="preserve">
<g>
	<g>
		<path d="M483.844,50.561c-18.766-18.975-41.381-28.844-65.483-28.528c-22.549,0.292-44.674,9.874-62.298,26.981l-0.166,0.161
			L127.121,281.77c-22.891,23.131-22.897,56.713-0.014,79.85c11.096,11.22,25.251,17.398,39.86,17.398c0.002,0,0.005,0,0.007,0
			c14.786-0.002,29.034-6.18,40.189-17.465l158.123-161.542l-28.585-27.979L178.648,333.503c-3.516,3.557-7.663,5.516-11.68,5.516
			c-3.952,0.001-7.796-1.858-11.423-5.525c-10.528-10.646-3.503-20.043,0.049-23.631L384.077,77.566
			c21.836-21.064,49.811-20.632,71.327,1.123c25.53,25.813,18.405,56.117,0.017,74.698l-260.074,268.6
			c-17.871,18.046-40.482,27.985-63.677,27.988c-0.004,0-0.008,0-0.012,0c-23.187,0-45.185-9.849-63.613-28.481
			c-43.137-43.615-31.089-94.84-0.006-126.274L265.135,98.168l-28.28-28.286L39.715,266.977l-0.075,0.076
			c-24.721,24.981-38.785,56.483-39.601,88.7c-0.871,34.355,12.811,66.814,39.568,93.869c25.738,26.023,58.427,40.354,92.054,40.353
			c0.004,0,0.013,0,0.017-0.001c33.995-0.004,66.734-14.188,92.186-39.937l260.074-268.601
			C521.387,143.51,521.354,88.488,483.844,50.561z"/>
	</g>
</g>
<g>
</g>
<g>
</g>
<g>
</g>
<g>
</g>
<g>
</g>
<g>
</g>
<g>
</g>
<g>
</g>
<g>
</g>
<g>
</g>
<g>
</g>
<g>
</g>
<g>
</g>
<g>
</g>
<g>
</g>
</svg>
