<?xml version="1.0" encoding="iso-8859-1"?>
<!-- Generator: Adobe Illustrator 19.0.0, SVG Export Plug-In . SVG Version: 6.00 Build 0)  -->
<svg version="1.1" id="Capa_1" xmlns="http://www.w3.org/2000/svg" xmlns:xlink="http://www.w3.org/1999/xlink" x="0px" y="0px"
	 viewBox="0 0 512 512" style="enable-background:new 0 0 512 512;" xml:space="preserve">
<g>
	<g>
		<path d="M452,52H332.838l9.278,26.589C351.692,106.031,356,133.359,356,144c0,19.851-16.149,36-36,36s-36-16.149-36-36
			c0-10.641,4.308-37.969,13.884-65.411L307.162,52H188c-33.084,0-60,26.916-60,60v76.114C106.357,182.584,87.172,180,76,180
			c-41.906,0-76,34.093-76,76c0,41.907,34.094,76,76,76c11.172,0,30.357-2.584,52-8.114V400c0,33.084,26.916,60,60,60h119.162
			l-9.278-26.589C288.308,405.969,284,378.641,284,368c0-19.851,16.149-36,36-36s36,16.149,36,36
			c0,10.641-4.308,37.969-13.884,65.411L332.838,460H452c33.084,0,60-26.916,60-60V112C512,78.916,485.084,52,452,52z M472,400
			c0,11.028-8.972,20-20,20h-64.114c5.53-21.642,8.114-40.828,8.114-52c0-41.907-34.094-76-76-76s-76,34.093-76,76
			c0,11.172,2.584,30.358,8.114,52H188c-11.028,0-20-8.972-20-20V268.838l-26.59,9.279C113.969,287.693,86.641,292,76,292
			c-19.851,0-36-16.149-36-36s16.149-36,36-36c10.641,0,37.969,4.307,65.41,13.883l26.59,9.279V112c0-11.028,8.972-20,20-20h64.114
			c-5.53,21.642-8.114,40.828-8.114,52c0,41.907,34.094,76,76,76s76-34.093,76-76c0-11.172-2.584-30.358-8.114-52H452
			c11.028,0,20,8.972,20,20V400z"/>
	</g>
</g>
<g>
</g>
<g>
</g>
<g>
</g>
<g>
</g>
<g>
</g>
<g>
</g>
<g>
</g>
<g>
</g>
<g>
</g>
<g>
</g>
<g>
</g>
<g>
</g>
<g>
</g>
<g>
</g>
<g>
</g>
</svg>
