<?xml version="1.0" encoding="iso-8859-1"?>
<!-- Generator: Adobe Illustrator 19.0.0, SVG Export Plug-In . SVG Version: 6.00 Build 0)  -->
<svg version="1.1" id="Capa_1" xmlns="http://www.w3.org/2000/svg" xmlns:xlink="http://www.w3.org/1999/xlink" x="0px" y="0px"
	 viewBox="0 0 512 512" style="enable-background:new 0 0 512 512;" xml:space="preserve">
<g>
	<g>
		<path d="M451.946,35.801H60.054C26.94,35.801,0,62.742,0,95.856v320.289c0,33.114,26.94,60.054,60.054,60.054h391.892
			c33.114,0,60.054-26.94,60.054-60.054V95.855C512,62.742,485.06,35.801,451.946,35.801z M471.964,416.145
			c0,11.038-8.98,20.018-20.018,20.018H60.054c-11.038,0-20.018-8.98-20.018-20.018v-97.901l85.332-124.715l40.069,50.087
			L64.219,389.117l32.866,22.864l123.925-178.144l130.998,170.298h119.956V416.145z M471.964,364.098H371.721L219.387,166.062
			l-30.103,43.273l-66.429-83.036L40.036,247.344V95.856c0-11.038,8.98-20.018,20.018-20.018h391.892
			c11.038,0,20.018,8.98,20.018,20.018V364.098z"/>
	</g>
</g>
<g>
	<g>
		<path d="M377.879,107.866c-33.114,0-60.054,26.94-60.054,60.054s26.94,60.054,60.054,60.054s60.054-26.94,60.054-60.054
			S410.993,107.866,377.879,107.866z M377.879,187.939c-11.038,0-20.018-8.98-20.018-20.018s8.98-20.018,20.018-20.018
			s20.018,8.98,20.018,20.018S388.917,187.939,377.879,187.939z"/>
	</g>
</g>
<g>
</g>
<g>
</g>
<g>
</g>
<g>
</g>
<g>
</g>
<g>
</g>
<g>
</g>
<g>
</g>
<g>
</g>
<g>
</g>
<g>
</g>
<g>
</g>
<g>
</g>
<g>
</g>
<g>
</g>
</svg>
