<?xml version="1.0" encoding="iso-8859-1"?>
<!-- Generator: Adobe Illustrator 19.0.0, SVG Export Plug-In . SVG Version: 6.00 Build 0)  -->
<svg version="1.1" id="Capa_1" xmlns="http://www.w3.org/2000/svg" xmlns:xlink="http://www.w3.org/1999/xlink" x="0px" y="0px"
	 viewBox="0 0 512.001 512.001" style="enable-background:new 0 0 512.001 512.001;" xml:space="preserve">
<g>
	<g>
		<polygon points="168.475,64.203 140.206,35.935 0,176.141 140.206,316.347 168.475,288.079 56.537,176.141 		"/>
	</g>
</g>
<g>
	<g>
		<path d="M324.104,156.152H174.471l91.949-91.949l-28.268-28.268L97.946,176.141l140.206,140.206l28.268-28.268l-91.949-91.949
			h149.633c81.562,0,147.918,66.356,147.918,147.918c0,38.36-19.398,70.958-35.671,91.548l-12.393,15.682l31.366,24.788
			l12.393-15.682c20.202-25.563,44.284-66.497,44.284-116.336C512,240.441,427.71,156.152,324.104,156.152z"/>
	</g>
</g>
<g>
</g>
<g>
</g>
<g>
</g>
<g>
</g>
<g>
</g>
<g>
</g>
<g>
</g>
<g>
</g>
<g>
</g>
<g>
</g>
<g>
</g>
<g>
</g>
<g>
</g>
<g>
</g>
<g>
</g>
</svg>
