<?xml version="1.0" encoding="iso-8859-1"?>
<!-- Generator: Adobe Illustrator 19.0.0, SVG Export Plug-In . SVG Version: 6.00 Build 0)  -->
<svg version="1.1" id="Capa_1" xmlns="http://www.w3.org/2000/svg" xmlns:xlink="http://www.w3.org/1999/xlink" x="0px" y="0px"
	 viewBox="0 0 512 512" style="enable-background:new 0 0 512 512;" xml:space="preserve">
<g>
	<g>
		<path d="M468,439.715V392h-20c-10.384,0-18.709-3.609-24.745-10.728C415.893,372.588,412,358.886,412,341.646V204
			c0-78.818-59.543-144.777-136-154.698V0h-40v49.317c-20.621,2.687-40.612,9.489-58.627,20.071
			c-16.364,9.613-30.878,22.19-42.775,36.925L28.643,0.358L0.357,28.642l483,483l28.285-28.284L468,439.715z M163.073,134.788
			c21.565-28.973,54.892-46.249,91.228-46.775h3.397C320.737,88.928,372,140.933,372,204v137.646c0,0.709,0.025,1.402,0.035,2.105
			L163.073,134.788z"/>
	</g>
</g>
<g>
	<g>
		<path d="M362.716,448L324,409.285V408H119.208C132.813,392.784,140,372.052,140,348V225.285l-38.967-38.967
			C100.362,192.173,100,198.074,100,204v144c0,14.175-3.734,25.775-10.799,33.546C82.984,388.385,74.271,392,64,392H44v56h161.413
			c-0.915,3.855-1.413,7.869-1.413,12c0,28.673,23.327,52,52,52c28.673,0,52-23.327,52-52c0-4.131-0.499-8.145-1.413-12H362.716z
			 M256,472c-6.617,0-12-5.383-12-12s5.383-12,12-12s12,5.383,12,12S262.617,472,256,472z"/>
	</g>
</g>
<g>
</g>
<g>
</g>
<g>
</g>
<g>
</g>
<g>
</g>
<g>
</g>
<g>
</g>
<g>
</g>
<g>
</g>
<g>
</g>
<g>
</g>
<g>
</g>
<g>
</g>
<g>
</g>
<g>
</g>
</svg>
