<?xml version="1.0" encoding="iso-8859-1"?>
<!-- Generator: Adobe Illustrator 19.0.0, SVG Export Plug-In . SVG Version: 6.00 Build 0)  -->
<svg version="1.1" id="Capa_1" xmlns="http://www.w3.org/2000/svg" xmlns:xlink="http://www.w3.org/1999/xlink" x="0px" y="0px"
	 viewBox="0 0 512 512" style="enable-background:new 0 0 512 512;" xml:space="preserve">
<g>
	<g>
		<path d="M472,195v126H308v20c0,28.673-23.327,52-52,52c-28.673,0-52-23.327-52-52l-0.004-20H40V195H0v257
			c0,33.084,26.916,60,60,60h392c33.084,0,60-26.916,60-60V195H472z M472,452c0,11.028-8.972,20-20,20H60c-11.028,0-20-8.972-20-20
			v-91h126.189c9.157,41.143,45.949,72,89.811,72s80.653-30.857,89.811-72H472V452z"/>
	</g>
</g>
<g>
	<g>
		<polygon points="352,115.716 276,191.716 276,0 236,0 236,191.716 160,115.716 131.716,144 256,268.284 380.284,144 		"/>
	</g>
</g>
<g>
</g>
<g>
</g>
<g>
</g>
<g>
</g>
<g>
</g>
<g>
</g>
<g>
</g>
<g>
</g>
<g>
</g>
<g>
</g>
<g>
</g>
<g>
</g>
<g>
</g>
<g>
</g>
<g>
</g>
</svg>
