<?xml version="1.0" encoding="iso-8859-1"?>
<!-- Generator: Adobe Illustrator 19.0.0, SVG Export Plug-In . SVG Version: 6.00 Build 0)  -->
<svg version="1.1" id="Capa_1" xmlns="http://www.w3.org/2000/svg" xmlns:xlink="http://www.w3.org/1999/xlink" x="0px" y="0px"
	 viewBox="0 0 512 512" style="enable-background:new 0 0 512 512;" xml:space="preserve">
<g>
	<g>
		<polygon points="256,0 132.027,123.973 160.24,152.186 236.05,76.376 236.05,267.613 275.95,267.613 275.95,76.376 
			351.76,152.186 379.973,123.973 		"/>
	</g>
</g>
<g>
	<g>
		<path d="M471.46,195.793v125.685H307.87v19.95c0,28.601-23.269,51.87-51.87,51.87s-51.87-23.269-51.87-51.87l-0.003-19.95H40.54
			V195.793H0.64V452.15c0,33.001,26.849,59.85,59.85,59.85H451.51c33.001,0,59.85-26.849,59.85-59.85V195.793H471.46z
			 M471.46,452.15c0,11-8.95,19.95-19.95,19.95H60.49c-11,0-19.95-8.95-19.95-19.95v-90.772h125.873
			c9.134,41.04,45.834,71.82,89.586,71.82s80.451-30.78,89.586-71.82H471.46V452.15z"/>
	</g>
</g>
<g>
</g>
<g>
</g>
<g>
</g>
<g>
</g>
<g>
</g>
<g>
</g>
<g>
</g>
<g>
</g>
<g>
</g>
<g>
</g>
<g>
</g>
<g>
</g>
<g>
</g>
<g>
</g>
<g>
</g>
</svg>
