<?xml version="1.0" encoding="iso-8859-1"?>
<!-- Generator: Adobe Illustrator 19.0.0, SVG Export Plug-In . SVG Version: 6.00 Build 0)  -->
<svg version="1.1" id="Capa_1" xmlns="http://www.w3.org/2000/svg" xmlns:xlink="http://www.w3.org/1999/xlink" x="0px" y="0px"
	 viewBox="0 0 512 512" style="enable-background:new 0 0 512 512;" xml:space="preserve">
<g>
	<g>
		<path d="M256.47,303.407L0,46.395v189.693l213.999,212.1c11.333,11.328,26.394,17.564,42.415,17.563c0.021,0,0.042,0,0.063,0
			c16.044-0.017,31.116-6.284,42.38-17.589L512,236.064V46.249L256.47,303.407z M472,219.438L270.582,419.869
			c-3.774,3.788-8.799,5.877-14.146,5.882c-0.008,0-0.015,0-0.021,0c-5.34,0-10.361-2.079-14.198-5.914L40,219.415v-76.307
			l216.53,216.988L472,143.253V219.438z"/>
	</g>
</g>
<g>
</g>
<g>
</g>
<g>
</g>
<g>
</g>
<g>
</g>
<g>
</g>
<g>
</g>
<g>
</g>
<g>
</g>
<g>
</g>
<g>
</g>
<g>
</g>
<g>
</g>
<g>
</g>
<g>
</g>
</svg>
