<?xml version="1.0" encoding="iso-8859-1"?>
<!-- Generator: Adobe Illustrator 19.0.0, SVG Export Plug-In . SVG Version: 6.00 Build 0)  -->
<svg version="1.1" id="Capa_1" xmlns="http://www.w3.org/2000/svg" xmlns:xlink="http://www.w3.org/1999/xlink" x="0px" y="0px"
	 viewBox="0 0 512.001 512.001" style="enable-background:new 0 0 512.001 512.001;" xml:space="preserve">
<g>
	<g>
		<path d="M79.786,80.351c-53.208,53.207-53.208,139.78-0.001,192.987l28.261-28.261c-37.622-37.622-37.623-98.839,0.001-136.463
			c37.623-37.623,98.84-37.623,136.463-0.001l28.261-28.261C219.565,27.144,132.992,27.145,79.786,80.351z"/>
	</g>
</g>
<g>
	<g>
		<path d="M136.077,136.143c-22.397,22.397-22.398,58.841-0.001,81.239l28.262-28.261c-3.301-3.301-5.119-7.69-5.119-12.358
			c0-4.667,1.819-9.056,5.12-12.357c3.301-3.301,7.69-5.119,12.357-5.119c4.668,0,9.058,1.818,12.358,5.119l28.261-28.262
			C194.918,113.746,158.474,113.746,136.077,136.143z"/>
	</g>
</g>
<g>
	<g>
		<path d="M487.073,66.842L419.999,0L280.703,139.065l54.001,55.77c-9.05,16.065-28.686,46.84-62.151,80.305
			c-33.469,33.47-64.469,53.329-80.688,62.524l-54.676-53.98L0.067,419.99l66.707,67.151c25.5,25.5,64.299,32.108,96.547,16.446
			c49.211-23.901,123.479-68.002,197.838-142.36s118.459-148.627,142.36-197.838c5.663-11.661,8.414-24.175,8.414-36.609
			C511.934,104.824,503.353,83.122,487.073,66.842z M467.568,145.926c-22.562,46.452-64.24,116.608-134.67,187.038
			c-70.43,70.431-140.586,112.109-187.038,134.67c-16.935,8.225-37.359,4.707-50.775-8.709l-38.502-38.758l80.706-80.223
			l46.579,45.985l12.462-5.55c2.025-0.901,50.223-22.712,104.489-76.978c54.302-54.301,75.658-102.092,76.54-104.1l5.404-12.295
			l-45.962-47.467l83.227-83.09l38.804,38.67C472.277,108.583,475.79,128.998,467.568,145.926z"/>
	</g>
</g>
<g>
</g>
<g>
</g>
<g>
</g>
<g>
</g>
<g>
</g>
<g>
</g>
<g>
</g>
<g>
</g>
<g>
</g>
<g>
</g>
<g>
</g>
<g>
</g>
<g>
</g>
<g>
</g>
<g>
</g>
</svg>
