<?xml version="1.0" encoding="iso-8859-1"?>
<!-- Generator: Adobe Illustrator 19.0.0, SVG Export Plug-In . SVG Version: 6.00 Build 0)  -->
<svg version="1.1" id="Capa_1" xmlns="http://www.w3.org/2000/svg" xmlns:xlink="http://www.w3.org/1999/xlink" x="0px" y="0px"
	 viewBox="0 0 512 512" style="enable-background:new 0 0 512 512;" xml:space="preserve">
<g>
	<g>
		<path d="M298.916,63.897c-11.324-11.364-26.396-17.632-42.44-17.648c-0.021,0-0.041,0-0.062,0
			c-16.02,0-31.082,6.236-42.355,17.504L0,275.913v189.692l256.47-257.012L512,465.751V275.936L298.916,63.897z M472,368.747
			L256.53,151.904L40,368.892v-76.307L242.276,92.103c3.778-3.775,8.798-5.854,14.139-5.854c0.007,0,0.014,0,0.021,0
			c5.348,0.005,10.372,2.094,14.206,5.942L472,292.562V368.747z"/>
	</g>
</g>
<g>
</g>
<g>
</g>
<g>
</g>
<g>
</g>
<g>
</g>
<g>
</g>
<g>
</g>
<g>
</g>
<g>
</g>
<g>
</g>
<g>
</g>
<g>
</g>
<g>
</g>
<g>
</g>
<g>
</g>
</svg>
